<svg version="1.1" xmlns="http://www.w3.org/2000/svg" viewBox="0 0 1492.8693591479746 889.7117349201579" width="2985.738718295949" height="1779.4234698403159">
  <!-- svg-source:excalidraw -->
  
  <defs>
    <style class="style-fonts">
      @font-face {
        font-family: "Virgil";
        src: url("https://excalidraw.com/Virgil.woff2");
      }
      @font-face {
        font-family: "Cascadia";
        src: url("https://excalidraw.com/Cascadia.woff2");
      }
      @font-face {
        font-family: "Assistant";
        src: url("https://excalidraw.com/Assistant-Regular.woff2");
      }
    </style>
    
  </defs>
  <rect x="0" y="0" width="1492.8693591479746" height="889.7117349201579" fill="#ffffff"></rect><g stroke-linecap="round" transform="translate(119.7639855110234 32.99609375) rotate(0 36.056640625 17.5)"><path d="M0 0 C14.66 0, 29.32 0, 72.11 0 M0 0 C22.5 0, 44.99 0, 72.11 0 M72.11 0 C72.11 9.1, 72.11 18.21, 72.11 35 M72.11 0 C72.11 11.22, 72.11 22.43, 72.11 35 M72.11 35 C43.67 35, 15.23 35, 0 35 M72.11 35 C56.23 35, 40.35 35, 0 35 M0 35 C0 25.37, 0 15.73, 0 0 M0 35 C0 27.84, 0 20.69, 0 0" stroke="#1e1e1e" stroke-width="2" fill="none"></path></g><g transform="translate(130.7962120735234 38.99609375) rotate(0 25.0244140625 11.5)"><text x="25.0244140625" y="18.400390625" font-family="Helvetica, Segoe UI Emoji" font-size="20px" fill="#1e1e1e" text-anchor="middle" style="white-space: pre;" direction="ltr" dominant-baseline="alphabetic">Id_no</text></g><g stroke-linecap="round" transform="translate(191.6135948860234 33.34375) rotate(0 36.056640625 17.5)"><path d="M0 0 C22.5 0, 44.99 0, 72.11 0 M0 0 C18.76 0, 37.52 0, 72.11 0 M72.11 0 C72.11 11.22, 72.11 22.43, 72.11 35 M72.11 0 C72.11 13.8, 72.11 27.61, 72.11 35 M72.11 35 C56.23 35, 40.35 35, 0 35 M72.11 35 C52.27 35, 32.42 35, 0 35 M0 35 C0 27.84, 0 20.69, 0 0 M0 35 C0 21.34, 0 7.69, 0 0" stroke="#1e1e1e" stroke-width="2" fill="none"></path></g><g transform="translate(207.4651573860234 39.34375) rotate(0 20.205078125 11.5)"><text x="20.205078125" y="18.400390625" font-family="Helvetica, Segoe UI Emoji" font-size="20px" fill="#1e1e1e" text-anchor="middle" style="white-space: pre;" direction="ltr" dominant-baseline="alphabetic">Year</text></g><g stroke-linecap="round" transform="translate(263.0667198860234 33.53125) rotate(0 36.056640625 17.5)"><path d="M0 0 C28.12 0, 56.24 0, 72.11 0 M0 0 C17.51 0, 35.03 0, 72.11 0 M72.11 0 C72.11 13.06, 72.11 26.12, 72.11 35 M72.11 0 C72.11 11.04, 72.11 22.07, 72.11 35 M72.11 35 C44.02 35, 15.92 35, 0 35 M72.11 35 C50.19 35, 28.27 35, 0 35 M0 35 C0 25.96, 0 16.91, 0 0 M0 35 C0 21.53, 0 8.06, 0 0" stroke="#1e1e1e" stroke-width="2" fill="none"></path></g><g transform="translate(280.5979698860234 39.53125) rotate(0 18.525390625 11.5)"><text x="18.525390625" y="18.400390625" font-family="Helvetica, Segoe UI Emoji" font-size="20px" fill="#1e1e1e" text-anchor="middle" style="white-space: pre;" direction="ltr" dominant-baseline="alphabetic">Title</text></g><g transform="translate(121.5647667610234 10) rotate(0 64.833984375 11.5)"><text x="0" y="18.400390625" font-family="Helvetica, Segoe UI Emoji" font-size="20px" fill="#1e1e1e" text-anchor="start" style="white-space: pre;" direction="ltr" dominant-baseline="alphabetic">ART_OBJECT</text></g><g stroke-linecap="round"><g transform="translate(131.3342980110234 63.44140625) rotate(0 26.369140625 -0.53125)"><path d="M0 0 C17.59 -0.35, 35.17 -0.71, 52.74 -1.06 M0 0 C14.78 -0.3, 29.55 -0.6, 52.74 -1.06" stroke="#1e1e1e" stroke-width="2" fill="none"></path></g></g><mask></mask><g stroke-linecap="round" transform="translate(334.5354698860234 33.48828125) rotate(0 36.056640625 16.5)"><path d="M0 0 C27.16 0, 54.33 0, 72.11 0 M0 0 C17.31 0, 34.62 0, 72.11 0 M72.11 0 C72.11 12.5, 72.11 25.01, 72.11 33 M72.11 0 C72.11 8.05, 72.11 16.1, 72.11 33 M72.11 33 C46.48 33, 20.84 33, 0 33 M72.11 33 C48.39 33, 24.68 33, 0 33 M0 33 C0 25.92, 0 18.84, 0 0 M0 33 C0 25.61, 0 18.21, 0 0" stroke="#1e1e1e" stroke-width="2" fill="none"></path></g><g transform="translate(347.8089073860234 38.48828125) rotate(0 22.783203125 11.5)"><text x="22.783203125" y="18.400390625" font-family="Helvetica, Segoe UI Emoji" font-size="20px" fill="#1e1e1e" text-anchor="middle" style="white-space: pre;" direction="ltr" dominant-baseline="alphabetic">Desc</text></g><g stroke-linecap="round" transform="translate(407.6018761360234 33.69921875) rotate(0 36.056640625 17.5)"><path d="M0 0 C25.03 0, 50.06 0, 72.11 0 M0 0 C16.51 0, 33.03 0, 72.11 0 M72.11 0 C72.11 13.46, 72.11 26.93, 72.11 35 M72.11 0 C72.11 13.16, 72.11 26.32, 72.11 35 M72.11 35 C51.43 35, 30.74 35, 0 35 M72.11 35 C51.46 35, 30.82 35, 0 35 M0 35 C0 21.14, 0 7.29, 0 0 M0 35 C0 22.24, 0 9.49, 0 0" stroke="#1e1e1e" stroke-width="2" fill="none"></path></g><g transform="translate(416.9837120735234 39.69921875) rotate(0 26.6748046875 11.5)"><text x="26.6748046875" y="18.400390625" font-family="Helvetica, Segoe UI Emoji" font-size="20px" fill="#1e1e1e" text-anchor="middle" style="white-space: pre;" direction="ltr" dominant-baseline="alphabetic">Origin</text></g><g stroke-linecap="round" transform="translate(479.9807823860234 33.375) rotate(0 36.056640625 17.5)"><path d="M0 0 C26.84 0, 53.68 0, 72.11 0 M0 0 C24.73 0, 49.45 0, 72.11 0 M72.11 0 C72.11 8.92, 72.11 17.84, 72.11 35 M72.11 0 C72.11 9.83, 72.11 19.66, 72.11 35 M72.11 35 C55.34 35, 38.58 35, 0 35 M72.11 35 C54 35, 35.88 35, 0 35 M0 35 C0 25.1, 0 15.19, 0 0 M0 35 C0 25.4, 0 15.81, 0 0" stroke="#1e1e1e" stroke-width="2" fill="none"></path></g><g transform="translate(487.6829308235234 39.375) rotate(0 28.3544921875 11.5)"><text x="28.3544921875" y="18.400390625" font-family="Helvetica, Segoe UI Emoji" font-size="20px" fill="#1e1e1e" text-anchor="middle" style="white-space: pre;" direction="ltr" dominant-baseline="alphabetic">Epoch</text></g><g stroke-linecap="round" transform="translate(552.0901573860234 33.42578125) rotate(0 50.6484375 17.0390625)"><path d="M0 0 C21.75 0, 43.5 0, 101.3 0 M0 0 C20.67 0, 41.33 0, 101.3 0 M101.3 0 C101.3 9.92, 101.3 19.83, 101.3 34.08 M101.3 0 C101.3 7.41, 101.3 14.81, 101.3 34.08 M101.3 34.08 C78.55 34.08, 55.8 34.08, 0 34.08 M101.3 34.08 C72.88 34.08, 44.46 34.08, 0 34.08 M0 34.08 C0 21.34, 0 8.6, 0 0 M0 34.08 C0 25.71, 0 17.34, 0 0" stroke="#1e1e1e" stroke-width="2" fill="none"></path></g><g transform="translate(563.2854698860234 38.96484375) rotate(0 39.453125 11.5)"><text x="39.453125" y="18.400390625" font-family="Helvetica, Segoe UI Emoji" font-size="20px" fill="#1e1e1e" text-anchor="middle" style="white-space: pre;" direction="ltr" dominant-baseline="alphabetic">ArtName</text></g><g stroke-linecap="round" transform="translate(119.70888601569254 130.232421875) rotate(0 46.216796875 16.5)"><path d="M0 0 C33.67 0, 67.34 0, 92.43 0 M0 0 C29.88 0, 59.75 0, 92.43 0 M92.43 0 C92.43 10.29, 92.43 20.59, 92.43 33 M92.43 0 C92.43 9.35, 92.43 18.7, 92.43 33 M92.43 33 C56.09 33, 19.75 33, 0 33 M92.43 33 C56.66 33, 20.89 33, 0 33 M0 33 C0 25.43, 0 17.86, 0 0 M0 33 C0 25.17, 0 17.34, 0 0" stroke="#1e1e1e" stroke-width="2" fill="none"></path></g><g transform="translate(126.47255789069254 135.232421875) rotate(0 39.453125 11.5)"><text x="39.453125" y="18.400390625" font-family="Helvetica, Segoe UI Emoji" font-size="20px" fill="#1e1e1e" text-anchor="middle" style="white-space: pre;" direction="ltr" dominant-baseline="alphabetic">ArtName</text></g><g stroke-linecap="round" transform="translate(211.72255789069254 128.537109375) rotate(0 36.056640625 17.5)"><path d="M0 0 C16.29 0, 32.59 0, 72.11 0 M0 0 C20.81 0, 41.62 0, 72.11 0 M72.11 0 C72.11 10.08, 72.11 20.16, 72.11 35 M72.11 0 C72.11 8.01, 72.11 16.01, 72.11 35 M72.11 35 C56.68 35, 41.25 35, 0 35 M72.11 35 C45.15 35, 18.18 35, 0 35 M0 35 C0 24.75, 0 14.5, 0 0 M0 35 C0 23.38, 0 11.76, 0 0" stroke="#1e1e1e" stroke-width="2" fill="none"></path></g><g transform="translate(226.10927664069254 134.537109375) rotate(0 21.669921875 11.5)"><text x="21.669921875" y="18.400390625" font-family="Helvetica, Segoe UI Emoji" font-size="20px" fill="#1e1e1e" text-anchor="middle" style="white-space: pre;" direction="ltr" dominant-baseline="alphabetic">DOB</text></g><g stroke-linecap="round" transform="translate(285.54677664069254 127.888671875) rotate(0 57.029296875 18.296875)"><path d="M0 0 C22.97 0, 45.95 0, 114.06 0 M0 0 C45.14 0, 90.27 0, 114.06 0 M114.06 0 C114.06 12.15, 114.06 24.31, 114.06 36.59 M114.06 0 C114.06 11.24, 114.06 22.47, 114.06 36.59 M114.06 36.59 C69.77 36.59, 25.49 36.59, 0 36.59 M114.06 36.59 C72.95 36.59, 31.85 36.59, 0 36.59 M0 36.59 C0 28.78, 0 20.97, 0 0 M0 36.59 C0 26.33, 0 16.06, 0 0" stroke="#1e1e1e" stroke-width="2" fill="none"></path></g><g transform="translate(290.86708914069254 134.685546875) rotate(0 51.708984375 11.5)"><text x="51.708984375" y="18.400390625" font-family="Helvetica, Segoe UI Emoji" font-size="20px" fill="#1e1e1e" text-anchor="middle" style="white-space: pre;" direction="ltr" dominant-baseline="alphabetic">Death_date</text></g><g transform="translate(123.79872976569254 105.193359375) rotate(0 35.380859375 11.5)"><text x="0" y="18.400390625" font-family="Helvetica, Segoe UI Emoji" font-size="20px" fill="#1e1e1e" text-anchor="start" style="white-space: pre;" direction="ltr" dominant-baseline="alphabetic">ARTIST</text></g><g stroke-linecap="round"><g transform="translate(128.89247976569254 158.017578125) rotate(0 37.70703125 -0.22265625)"><path d="M0 0 C23.52 -0.14, 47.04 -0.28, 75.41 -0.45 M0 0 C21.37 -0.13, 42.74 -0.25, 75.41 -0.45" stroke="#1e1e1e" stroke-width="2" fill="none"></path></g></g><mask></mask><g stroke-linecap="round" transform="translate(397.64443289069254 128.681640625) rotate(0 36.056640625 16.5)"><path d="M0 0 C24.57 0, 49.14 0, 72.11 0 M0 0 C22.49 0, 44.97 0, 72.11 0 M72.11 0 C72.11 8.26, 72.11 16.51, 72.11 33 M72.11 0 C72.11 10.25, 72.11 20.5, 72.11 33 M72.11 33 C50.46 33, 28.8 33, 0 33 M72.11 33 C53.96 33, 35.81 33, 0 33 M0 33 C0 22.87, 0 12.74, 0 0 M0 33 C0 25.37, 0 17.74, 0 0" stroke="#1e1e1e" stroke-width="2" fill="none"></path></g><g transform="translate(407.02626882819254 133.681640625) rotate(0 26.6748046875 11.5)"><text x="26.6748046875" y="18.400390625" font-family="Helvetica, Segoe UI Emoji" font-size="20px" fill="#1e1e1e" text-anchor="middle" style="white-space: pre;" direction="ltr" dominant-baseline="alphabetic">Origin</text></g><g stroke-linecap="round" transform="translate(469.71083914069254 128.771484375) rotate(0 36.056640625 17.5)"><path d="M0 0 C28.78 0, 57.56 0, 72.11 0 M0 0 C25.27 0, 50.54 0, 72.11 0 M72.11 0 C72.11 13.39, 72.11 26.78, 72.11 35 M72.11 0 C72.11 9.68, 72.11 19.36, 72.11 35 M72.11 35 C49.71 35, 27.3 35, 0 35 M72.11 35 C46.29 35, 20.47 35, 0 35 M0 35 C0 27.42, 0 19.83, 0 0 M0 35 C0 22.9, 0 10.8, 0 0" stroke="#1e1e1e" stroke-width="2" fill="none"></path></g><g transform="translate(477.41298757819254 134.771484375) rotate(0 28.3544921875 11.5)"><text x="28.3544921875" y="18.400390625" font-family="Helvetica, Segoe UI Emoji" font-size="20px" fill="#1e1e1e" text-anchor="middle" style="white-space: pre;" direction="ltr" dominant-baseline="alphabetic">Epoch</text></g><g stroke-linecap="round" transform="translate(542.2147453906925 128.447265625) rotate(0 54.15625 17.43359375)"><path d="M0 0 C39.04 0, 78.08 0, 108.31 0 M0 0 C42.25 0, 84.49 0, 108.31 0 M108.31 0 C108.31 10.48, 108.31 20.96, 108.31 34.87 M108.31 0 C108.31 8.94, 108.31 17.89, 108.31 34.87 M108.31 34.87 C84.48 34.87, 60.65 34.87, 0 34.87 M108.31 34.87 C79.4 34.87, 50.48 34.87, 0 34.87 M0 34.87 C0 25.91, 0 16.95, 0 0 M0 34.87 C0 23.04, 0 11.22, 0 0" stroke="#1e1e1e" stroke-width="2" fill="none"></path></g><g transform="translate(552.4647453906925 134.380859375) rotate(0 43.90625 11.5)"><text x="43.90625" y="18.400390625" font-family="Helvetica, Segoe UI Emoji" font-size="20px" fill="#1e1e1e" text-anchor="middle" style="white-space: pre;" direction="ltr" dominant-baseline="alphabetic">MainStyle</text></g><g stroke-linecap="round" transform="translate(119.46766184834291 205.05260374980395) rotate(0 46.216796875 16.5)"><path d="M0 0 C25.94 0, 51.88 0, 92.43 0 M0 0 C29.55 0, 59.11 0, 92.43 0 M92.43 0 C92.43 8.61, 92.43 17.22, 92.43 33 M92.43 0 C92.43 7.93, 92.43 15.85, 92.43 33 M92.43 33 C59.71 33, 26.98 33, 0 33 M92.43 33 C71.88 33, 51.32 33, 0 33 M0 33 C0 20.23, 0 7.46, 0 0 M0 33 C0 24.75, 0 16.49, 0 0" stroke="#1e1e1e" stroke-width="2" fill="none"></path></g><g transform="translate(127.33973216084291 210.05260374980395) rotate(0 38.3447265625 11.5)"><text x="38.3447265625" y="18.400390625" font-family="Helvetica, Segoe UI Emoji" font-size="20px" fill="#1e1e1e" text-anchor="middle" style="white-space: pre;" direction="ltr" dominant-baseline="alphabetic">ExName</text></g><g stroke-linecap="round" transform="translate(211.6532087233429 204.54088499980395) rotate(0 57.029296875 16.541015625)"><path d="M0 0 C25.88 0, 51.76 0, 114.06 0 M0 0 C37.87 0, 75.74 0, 114.06 0 M114.06 0 C114.06 12.05, 114.06 24.1, 114.06 33.08 M114.06 0 C114.06 8.69, 114.06 17.38, 114.06 33.08 M114.06 33.08 C72.77 33.08, 31.48 33.08, 0 33.08 M114.06 33.08 C79.36 33.08, 44.67 33.08, 0 33.08 M0 33.08 C0 21.27, 0 9.46, 0 0 M0 33.08 C0 24.01, 0 14.95, 0 0" stroke="#1e1e1e" stroke-width="2" fill="none"></path></g><g transform="translate(226.4412946608429 209.58190062480395) rotate(0 42.2412109375 11.5)"><text x="42.2412109375" y="18.400390625" font-family="Helvetica, Segoe UI Emoji" font-size="20px" fill="#1e1e1e" text-anchor="middle" style="white-space: pre;" direction="ltr" dominant-baseline="alphabetic">StartDate</text></g><g transform="translate(123.43250559834291 180.01354124980395) rotate(0 56.6748046875 11.5)"><text x="0" y="18.400390625" font-family="Helvetica, Segoe UI Emoji" font-size="20px" fill="#1e1e1e" text-anchor="start" style="white-space: pre;" direction="ltr" dominant-baseline="alphabetic">EXHIBITION</text></g><g stroke-linecap="round"><g transform="translate(128.6512555983429 232.83775999980395) rotate(0 37.70703125 -0.22265625)"><path d="M0 0 C19.68 -0.12, 39.36 -0.23, 75.41 -0.45 M0 0 C18.11 -0.11, 36.22 -0.21, 75.41 -0.45" stroke="#1e1e1e" stroke-width="2" fill="none"></path></g></g><mask></mask><g stroke-linecap="round" transform="translate(325.5151794109672 204.46877878372584) rotate(0 54.15625 16.5)"><path d="M0 0 C35.93 0, 71.85 0, 108.31 0 M0 0 C38.03 0, 76.06 0, 108.31 0 M108.31 0 C108.31 10.51, 108.31 21.01, 108.31 33 M108.31 0 C108.31 12.8, 108.31 25.61, 108.31 33 M108.31 33 C77.85 33, 47.39 33, 0 33 M108.31 33 C77.09 33, 45.86 33, 0 33 M0 33 C0 25.53, 0 18.06, 0 0 M0 33 C0 23.5, 0 14.01, 0 0" stroke="#1e1e1e" stroke-width="2" fill="none"></path></g><g transform="translate(340.7554137859672 209.46877878372584) rotate(0 38.916015625 11.5)"><text x="38.916015625" y="18.400390625" font-family="Helvetica, Segoe UI Emoji" font-size="20px" fill="#1e1e1e" text-anchor="middle" style="white-space: pre;" direction="ltr" dominant-baseline="alphabetic">EndDate</text></g><g stroke-linecap="round" transform="translate(234.39833914069254 305.2884979328309) rotate(0 46.216796875 16.5)"><path d="M0 0 C19.33 0, 38.66 0, 92.43 0 M0 0 C32.58 0, 65.16 0, 92.43 0 M92.43 0 C92.43 10.79, 92.43 21.58, 92.43 33 M92.43 0 C92.43 10.6, 92.43 21.21, 92.43 33 M92.43 33 C69.82 33, 47.2 33, 0 33 M92.43 33 C64.71 33, 36.99 33, 0 33 M0 33 C0 21.4, 0 9.79, 0 0 M0 33 C0 24.34, 0 15.69, 0 0" stroke="#1e1e1e" stroke-width="2" fill="none"></path></g><g transform="translate(242.27040945319254 310.2884979328309) rotate(0 38.3447265625 11.5)"><text x="38.3447265625" y="18.400390625" font-family="Helvetica, Segoe UI Emoji" font-size="20px" fill="#1e1e1e" text-anchor="middle" style="white-space: pre;" direction="ltr" dominant-baseline="alphabetic">ExName</text></g><g stroke-linecap="round" transform="translate(118.45107351569254 305.7103729328309) rotate(0 57.029296875 16.541015625)"><path d="M0 0 C32.16 0, 64.31 0, 114.06 0 M0 0 C32.6 0, 65.2 0, 114.06 0 M114.06 0 C114.06 7.95, 114.06 15.91, 114.06 33.08 M114.06 0 C114.06 6.77, 114.06 13.55, 114.06 33.08 M114.06 33.08 C79.97 33.08, 45.89 33.08, 0 33.08 M114.06 33.08 C88.14 33.08, 62.23 33.08, 0 33.08 M0 33.08 C0 25.39, 0 17.71, 0 0 M0 33.08 C0 25.81, 0 18.55, 0 0" stroke="#1e1e1e" stroke-width="2" fill="none"></path></g><g transform="translate(150.45595632819254 310.7513885578309) rotate(0 25.0244140625 11.5)"><text x="25.0244140625" y="18.400390625" font-family="Helvetica, Segoe UI Emoji" font-size="20px" fill="#1e1e1e" text-anchor="middle" style="white-space: pre;" direction="ltr" dominant-baseline="alphabetic">Id_no</text></g><g transform="translate(127.24990164069254 282.3744354328309) rotate(0 70.390625 11.5)"><text x="0" y="18.400390625" font-family="Helvetica, Segoe UI Emoji" font-size="20px" fill="#1e1e1e" text-anchor="start" style="white-space: pre;" direction="ltr" dominant-baseline="alphabetic">EXHIBITED_AT</text></g><g stroke-linecap="round"><g transform="translate(132.46865164069254 334.9330291828309) rotate(0 37.70703125 -0.22265625)"><path d="M0 0 C21.62 -0.13, 43.24 -0.26, 75.41 -0.45 M0 0 C17.33 -0.1, 34.66 -0.2, 75.41 -0.45" stroke="#1e1e1e" stroke-width="2" fill="none"></path></g></g><mask></mask><g stroke-linecap="round"><g transform="translate(202.91440182139115 333.9583252852123) rotate(0 58.652613190900695 -0.3905777386906948)"><path d="M0 0 C29.38 -0.2, 58.77 -0.39, 117.31 -0.78 M0 0 C31.82 -0.21, 63.64 -0.42, 117.31 -0.78" stroke="#1e1e1e" stroke-width="2" fill="none"></path></g></g><mask></mask><g stroke-linecap="round" transform="translate(229.98855817217986 378.44755170032136) rotate(0 52.85529148046567 16.891816245437894)"><path d="M0 0 C34.35 0, 68.7 0, 105.71 0 M0 0 C40.1 0, 80.19 0, 105.71 0 M105.71 0 C105.71 13.2, 105.71 26.4, 105.71 33.78 M105.71 0 C105.71 12.8, 105.71 25.6, 105.71 33.78 M105.71 33.78 C63.54 33.78, 21.38 33.78, 0 33.78 M105.71 33.78 C70.23 33.78, 34.76 33.78, 0 33.78 M0 33.78 C0 22.24, 0 10.7, 0 0 M0 33.78 C0 22.62, 0 11.45, 0 0" stroke="#1e1e1e" stroke-width="2" fill="none"></path></g><g transform="translate(235.58799027764553 383.83936794575925) rotate(0 47.255859375 11.5)"><text x="47.255859375" y="18.400390625" font-family="Helvetica, Segoe UI Emoji" font-size="20px" fill="#1e1e1e" text-anchor="middle" style="white-space: pre;" direction="ltr" dominant-baseline="alphabetic">Paint_type</text></g><g stroke-linecap="round" transform="translate(114.51981203003112 379.40642667435725) rotate(0 56.90689098957975 16.505512510385643)"><path d="M0 0 C35 0, 70 0, 113.81 0 M0 0 C24.62 0, 49.25 0, 113.81 0 M113.81 0 C113.81 10.54, 113.81 21.07, 113.81 33.01 M113.81 0 C113.81 10.03, 113.81 20.06, 113.81 33.01 M113.81 33.01 C74.38 33.01, 34.94 33.01, 0 33.01 M113.81 33.01 C90.99 33.01, 68.16 33.01, 0 33.01 M0 33.01 C0 26.25, 0 19.49, 0 0 M0 33.01 C0 25.02, 0 17.02, 0 0" stroke="#1e1e1e" stroke-width="2" fill="none"></path></g><g transform="translate(146.46487288045068 384.43662242229743) rotate(0 24.961830139160156 11.475316762445459)"><text x="24.961830139160156" y="18.36089660648757" font-family="Helvetica, Segoe UI Emoji" font-size="19.957072630339958px" fill="#1e1e1e" text-anchor="middle" style="white-space: pre;" direction="ltr" dominant-baseline="alphabetic">Id_no</text></g><g transform="translate(123.29975462765623 356.12057669512853) rotate(0 46.37300872802737 11.475316762445459)"><text x="0" y="18.36089660648757" font-family="Helvetica, Segoe UI Emoji" font-size="19.957072630339958px" fill="#1e1e1e" text-anchor="start" style="white-space: pre;" direction="ltr" dominant-baseline="alphabetic">PAINTING</text></g><g stroke-linecap="round"><g transform="translate(128.50730326713557 408.5663603359926) rotate(0 37.62609806653742 -0.2221783476424548)"><path d="M0 0 C24 -0.14, 48 -0.28, 75.25 -0.44 M0 0 C23.81 -0.14, 47.62 -0.28, 75.25 -0.44" stroke="#1e1e1e" stroke-width="2" fill="none"></path></g></g><mask></mask><g stroke-linecap="round" transform="translate(338.2268450380194 379.4740237216989) rotate(0 46.216796875 16.5)"><path d="M0 0 C31.55 0, 63.1 0, 92.43 0 M0 0 C19.73 0, 39.46 0, 92.43 0 M92.43 0 C92.43 10.98, 92.43 21.96, 92.43 33 M92.43 0 C92.43 10.34, 92.43 20.67, 92.43 33 M92.43 33 C62.08 33, 31.72 33, 0 33 M92.43 33 C61.56 33, 30.68 33, 0 33 M0 33 C0 25.75, 0 18.5, 0 0 M0 33 C0 21.66, 0 10.32, 0 0" stroke="#1e1e1e" stroke-width="2" fill="none"></path></g><g transform="translate(350.2053606630194 386.7740237216989) rotate(0 34.23828125 9.199999999999989)"><text x="34.23828125" y="14.720312499999999" font-family="Helvetica, Segoe UI Emoji" font-size="16px" fill="#1e1e1e" text-anchor="middle" style="white-space: pre;" direction="ltr" dominant-baseline="alphabetic">Drawn on</text></g><g stroke-linecap="round" transform="translate(431.3720388546741 378.240242689924) rotate(0 46.216796875 16.5)"><path d="M0 0 C32.61 0, 65.21 0, 92.43 0 M0 0 C20.33 0, 40.66 0, 92.43 0 M92.43 0 C92.43 11.99, 92.43 23.99, 92.43 33 M92.43 0 C92.43 12.57, 92.43 25.15, 92.43 33 M92.43 33 C59.07 33, 25.7 33, 0 33 M92.43 33 C65.02 33, 37.62 33, 0 33 M0 33 C0 21.12, 0 9.24, 0 0 M0 33 C0 20.37, 0 7.74, 0 0" stroke="#1e1e1e" stroke-width="2" fill="none"></path></g><g transform="translate(459.8036794796741 385.54024268992396) rotate(0 17.78515625 9.199999999999989)"><text x="17.78515625" y="14.720312499999999" font-family="Helvetica, Segoe UI Emoji" font-size="16px" fill="#1e1e1e" text-anchor="middle" style="white-space: pre;" direction="ltr" dominant-baseline="alphabetic">Style</text></g><g stroke-linecap="round" transform="translate(237.28012851200094 480.0488565850412) rotate(0 46.1175985988022 16.46458492003046)"><path d="M0 0 C23.63 0, 47.25 0, 92.24 0 M0 0 C26.27 0, 52.54 0, 92.24 0 M92.24 0 C92.24 9.57, 92.24 19.14, 92.24 32.93 M92.24 0 C92.24 9.54, 92.24 19.07, 92.24 32.93 M92.24 32.93 C66.97 32.93, 41.71 32.93, 0 32.93 M92.24 32.93 C71.5 32.93, 50.77 32.93, 0 32.93 M0 32.93 C0 23.87, 0 14.81, 0 0 M0 32.93 C0 22.93, 0 12.94, 0 0" stroke="#1e1e1e" stroke-width="2" fill="none"></path></g><g transform="translate(254.9446021108031 487.31344150507164) rotate(0 28.453125 9.199999999999989)"><text x="28.453125" y="14.720312499999999" font-family="Helvetica, Segoe UI Emoji" font-size="16px" fill="#1e1e1e" text-anchor="middle" style="white-space: pre;" direction="ltr" dominant-baseline="alphabetic">Material</text></g><g stroke-linecap="round" transform="translate(121.58172844362878 481.00773155907723) rotate(0 56.90689098957972 16.505512510385643)"><path d="M0 0 C33.42 0, 66.84 0, 113.81 0 M0 0 C30.46 0, 60.92 0, 113.81 0 M113.81 0 C113.81 10.22, 113.81 20.44, 113.81 33.01 M113.81 0 C113.81 11.9, 113.81 23.79, 113.81 33.01 M113.81 33.01 C81.52 33.01, 49.24 33.01, 0 33.01 M113.81 33.01 C82.63 33.01, 51.45 33.01, 0 33.01 M0 33.01 C0 24.8, 0 16.58, 0 0 M0 33.01 C0 22.47, 0 11.94, 0 0" stroke="#1e1e1e" stroke-width="2" fill="none"></path></g><g transform="translate(153.5267892940484 486.0379273070174) rotate(0 24.961830139160156 11.475316762445459)"><text x="24.961830139160156" y="18.36089660648757" font-family="Helvetica, Segoe UI Emoji" font-size="19.957072630339958px" fill="#1e1e1e" text-anchor="middle" style="white-space: pre;" direction="ltr" dominant-baseline="alphabetic">Id_no</text></g><g transform="translate(130.48276479125377 457.82396944964387) rotate(0 60.414955139160156 11.475316762445459)"><text x="0" y="18.36089660648757" font-family="Helvetica, Segoe UI Emoji" font-size="19.957072630339958px" fill="#1e1e1e" text-anchor="start" style="white-space: pre;" direction="ltr" dominant-baseline="alphabetic">SCULPTURE</text></g><g stroke-linecap="round"><g transform="translate(135.56921968073323 510.1676652207127) rotate(0 37.626098066537395 -0.2221783476424548)"><path d="M0 0 C20.29 -0.12, 40.57 -0.24, 75.25 -0.44 M0 0 C15.18 -0.09, 30.35 -0.18, 75.25 -0.44" stroke="#1e1e1e" stroke-width="2" fill="none"></path></g></g><mask></mask><g stroke-linecap="round" transform="translate(329.8059396948602 480.9777409548485) rotate(0 46.216796875 16.5)"><path d="M0 0 C29.65 0, 59.31 0, 92.43 0 M0 0 C28.66 0, 57.31 0, 92.43 0 M92.43 0 C92.43 11.07, 92.43 22.15, 92.43 33 M92.43 0 C92.43 13.14, 92.43 26.29, 92.43 33 M92.43 33 C72.32 33, 52.21 33, 0 33 M92.43 33 C63.42 33, 34.42 33, 0 33 M0 33 C0 20.73, 0 8.46, 0 0 M0 33 C0 21.82, 0 10.63, 0 0" stroke="#1e1e1e" stroke-width="2" fill="none"></path></g><g transform="translate(352.8977365698602 488.27774095484847) rotate(0 23.125 9.199999999999989)"><text x="23.125" y="14.720312499999999" font-family="Helvetica, Segoe UI Emoji" font-size="16px" fill="#1e1e1e" text-anchor="middle" style="white-space: pre;" direction="ltr" dominant-baseline="alphabetic">Height</text></g><g stroke-linecap="round" transform="translate(422.2903146948602 480.8605534548485) rotate(0 46.216796875 16.5)"><path d="M0 0 C35.88 0, 71.76 0, 92.43 0 M0 0 C26.2 0, 52.39 0, 92.43 0 M92.43 0 C92.43 11.87, 92.43 23.74, 92.43 33 M92.43 0 C92.43 13.11, 92.43 26.23, 92.43 33 M92.43 33 C68.48 33, 44.53 33, 0 33 M92.43 33 C56.77 33, 21.11 33, 0 33 M0 33 C0 22.63, 0 12.27, 0 0 M0 33 C0 25.77, 0 18.54, 0 0" stroke="#1e1e1e" stroke-width="2" fill="none"></path></g><g transform="translate(448.0578928198602 488.16055345484847) rotate(0 20.44921875 9.199999999999989)"><text x="20.44921875" y="14.720312499999999" font-family="Helvetica, Segoe UI Emoji" font-size="16px" fill="#1e1e1e" text-anchor="middle" style="white-space: pre;" direction="ltr" dominant-baseline="alphabetic">Width</text></g><g stroke-linecap="round" transform="translate(116.81581106438205 566.8536059044021) rotate(0 56.90689098957972 16.505512510385643)"><path d="M0 0 C26.18 0, 52.35 0, 113.81 0 M0 0 C44.15 0, 88.3 0, 113.81 0 M113.81 0 C113.81 7.82, 113.81 15.65, 113.81 33.01 M113.81 0 C113.81 11.14, 113.81 22.29, 113.81 33.01 M113.81 33.01 C83.8 33.01, 53.78 33.01, 0 33.01 M113.81 33.01 C75.36 33.01, 36.9 33.01, 0 33.01 M0 33.01 C0 22.13, 0 11.25, 0 0 M0 33.01 C0 26.24, 0 19.48, 0 0" stroke="#1e1e1e" stroke-width="2" fill="none"></path></g><g transform="translate(148.7608719148016 571.8838016523423) rotate(0 24.961830139160128 11.475316762445459)"><text x="24.961830139160156" y="18.36089660648757" font-family="Helvetica, Segoe UI Emoji" font-size="19.957072630339958px" fill="#1e1e1e" text-anchor="middle" style="white-space: pre;" direction="ltr" dominant-baseline="alphabetic">Id_no</text></g><g transform="translate(126.03030235790851 543.5677559251734) rotate(0 37.87868499755862 11.475316762445459)"><text x="0" y="18.36089660648757" font-family="Helvetica, Segoe UI Emoji" font-size="19.957072630339958px" fill="#1e1e1e" text-anchor="start" style="white-space: pre;" direction="ltr" dominant-baseline="alphabetic">STATUE</text></g><g stroke-linecap="round"><g transform="translate(130.97222599738797 596.0135395660376) rotate(0 37.62609806653742 -0.2221783476424548)"><path d="M0 0 C26.99 -0.16, 53.98 -0.32, 75.25 -0.44 M0 0 C24.71 -0.15, 49.42 -0.29, 75.25 -0.44" stroke="#1e1e1e" stroke-width="2" fill="none"></path></g></g><mask></mask><g stroke-linecap="round" transform="translate(235.23053519845098 660.2677588421633) rotate(0 46.1175985988022 16.46458492003046)"><path d="M0 0 C34.56 0, 69.12 0, 92.24 0 M0 0 C24.45 0, 48.9 0, 92.24 0 M92.24 0 C92.24 8.32, 92.24 16.65, 92.24 32.93 M92.24 0 C92.24 11.01, 92.24 22.02, 92.24 32.93 M92.24 32.93 C70.83 32.93, 49.43 32.93, 0 32.93 M92.24 32.93 C60.48 32.93, 28.72 32.93, 0 32.93 M0 32.93 C0 24.48, 0 16.03, 0 0 M0 32.93 C0 25.26, 0 17.58, 0 0" stroke="#1e1e1e" stroke-width="2" fill="none"></path></g><g transform="translate(264.0004775472531 667.5323437621937) rotate(0 17.34765625 9.199999999999989)"><text x="17.34765625" y="14.720312499999999" font-family="Helvetica, Segoe UI Emoji" font-size="16px" fill="#1e1e1e" text-anchor="middle" style="white-space: pre;" direction="ltr" dominant-baseline="alphabetic">Type</text></g><g stroke-linecap="round" transform="translate(119.53213513007887 661.2266338161993) rotate(0 56.90689098957975 16.505512510385643)"><path d="M0 0 C33.61 0, 67.22 0, 113.81 0 M0 0 C43.07 0, 86.14 0, 113.81 0 M113.81 0 C113.81 6.89, 113.81 13.78, 113.81 33.01 M113.81 0 C113.81 7.24, 113.81 14.48, 113.81 33.01 M113.81 33.01 C73.09 33.01, 32.37 33.01, 0 33.01 M113.81 33.01 C72.13 33.01, 30.44 33.01, 0 33.01 M0 33.01 C0 24.75, 0 16.5, 0 0 M0 33.01 C0 24.6, 0 16.18, 0 0" stroke="#1e1e1e" stroke-width="2" fill="none"></path></g><g transform="translate(151.47719598049844 666.2568295641395) rotate(0 24.961830139160156 11.475316762445459)"><text x="24.961830139160156" y="18.36089660648757" font-family="Helvetica, Segoe UI Emoji" font-size="19.957072630339958px" fill="#1e1e1e" text-anchor="middle" style="white-space: pre;" direction="ltr" dominant-baseline="alphabetic">Id_no</text></g><g transform="translate(128.4331714777038 637.8157838369706) rotate(0 34.91248321533203 11.475316762445459)"><text x="0" y="18.36089660648757" font-family="Helvetica, Segoe UI Emoji" font-size="19.957072630339958px" fill="#1e1e1e" text-anchor="start" style="white-space: pre;" direction="ltr" dominant-baseline="alphabetic">OTHER</text></g><g stroke-linecap="round"><g transform="translate(133.51962636718326 690.3865674778348) rotate(0 37.62609806653745 -0.2221783476424548)"><path d="M0 0 C27.07 -0.16, 54.14 -0.32, 75.25 -0.44 M0 0 C18.06 -0.11, 36.12 -0.21, 75.25 -0.44" stroke="#1e1e1e" stroke-width="2" fill="none"></path></g></g><mask></mask><g stroke-linecap="round" transform="translate(327.36416813806704 661.0716432119706) rotate(0 46.216796875 16.5)"><path d="M0 0 C18.81 0, 37.61 0, 92.43 0 M0 0 C20.29 0, 40.59 0, 92.43 0 M92.43 0 C92.43 9.28, 92.43 18.57, 92.43 33 M92.43 0 C92.43 7.93, 92.43 15.86, 92.43 33 M92.43 33 C73.59 33, 54.74 33, 0 33 M92.43 33 C67.14 33, 41.85 33, 0 33 M0 33 C0 24.72, 0 16.44, 0 0 M0 33 C0 22.22, 0 11.45, 0 0" stroke="#1e1e1e" stroke-width="2" fill="none"></path></g><g transform="translate(355.79580876306704 668.3716432119705) rotate(0 17.78515625 9.199999999999989)"><text x="17.78515625" y="14.720312499999999" font-family="Helvetica, Segoe UI Emoji" font-size="16px" fill="#1e1e1e" text-anchor="middle" style="white-space: pre;" direction="ltr" dominant-baseline="alphabetic">Style</text></g><g stroke-linecap="round" transform="translate(234.1590027805746 758.3246943836691) rotate(0 61.983151763516275 16.961929377284605)"><path d="M0 0 C38.7 0, 77.41 0, 123.97 0 M0 0 C31.83 0, 63.66 0, 123.97 0 M123.97 0 C123.97 13.41, 123.97 26.82, 123.97 33.92 M123.97 0 C123.97 13.35, 123.97 26.7, 123.97 33.92 M123.97 33.92 C82.54 33.92, 41.11 33.92, 0 33.92 M123.97 33.92 C82.04 33.92, 40.11 33.92, 0 33.92 M0 33.92 C0 22.69, 0 11.45, 0 0 M0 33.92 C0 24.68, 0 15.44, 0 0" stroke="#1e1e1e" stroke-width="2" fill="none"></path></g><g transform="translate(241.4429357940909 766.0866237609537) rotate(0 54.69921875 9.199999999999989)"><text x="54.69921875" y="14.720312499999999" font-family="Helvetica, Segoe UI Emoji" font-size="16px" fill="#1e1e1e" text-anchor="middle" style="white-space: pre;" direction="ltr" dominant-baseline="alphabetic">Date_borrowed</text></g><g stroke-linecap="round" transform="translate(120.46060271220244 759.2835693577051) rotate(0 56.90689098957972 16.505512510385643)"><path d="M0 0 C26.92 0, 53.83 0, 113.81 0 M0 0 C27.26 0, 54.52 0, 113.81 0 M113.81 0 C113.81 10.23, 113.81 20.47, 113.81 33.01 M113.81 0 C113.81 11.92, 113.81 23.83, 113.81 33.01 M113.81 33.01 C86.88 33.01, 59.95 33.01, 0 33.01 M113.81 33.01 C71.67 33.01, 29.53 33.01, 0 33.01 M0 33.01 C0 24.32, 0 15.63, 0 0 M0 33.01 C0 25.79, 0 18.57, 0 0" stroke="#1e1e1e" stroke-width="2" fill="none"></path></g><g transform="translate(152.40566356262207 764.3137651056453) rotate(0 24.961830139160156 11.475316762445459)"><text x="24.961830139160156" y="18.36089660648757" font-family="Helvetica, Segoe UI Emoji" font-size="19.957072630339958px" fill="#1e1e1e" text-anchor="middle" style="white-space: pre;" direction="ltr" dominant-baseline="alphabetic">Id_no</text></g><g transform="translate(129.24054530982744 735.9977193784764) rotate(0 59.8499755859375 11.475316762445459)"><text x="0" y="18.36089660648757" font-family="Helvetica, Segoe UI Emoji" font-size="19.957072630339958px" fill="#1e1e1e" text-anchor="start" style="white-space: pre;" direction="ltr" dominant-baseline="alphabetic">BORROWED</text></g><g stroke-linecap="round"><g transform="translate(134.4480939493069 788.4435030193406) rotate(0 37.62609806653745 -0.2221783476424548)"><path d="M0 0 C27.87 -0.16, 55.75 -0.33, 75.25 -0.44 M0 0 C20.22 -0.12, 40.44 -0.24, 75.25 -0.44" stroke="#1e1e1e" stroke-width="2" fill="none"></path></g></g><mask></mask><g stroke-linecap="round" transform="translate(235.4416773276755 846.0832893597009) rotate(0 62.69507893480903 16.6298144685922)"><path d="M0 0 C38.87 0, 77.74 0, 125.39 0 M0 0 C45.26 0, 90.52 0, 125.39 0 M125.39 0 C125.39 7.87, 125.39 15.74, 125.39 33.26 M125.39 0 C125.39 12.32, 125.39 24.63, 125.39 33.26 M125.39 33.26 C92.39 33.26, 59.38 33.26, 0 33.26 M125.39 33.26 C97.96 33.26, 70.53 33.26, 0 33.26 M0 33.26 C0 22.12, 0 10.97, 0 0 M0 33.26 C0 24.69, 0 16.13, 0 0" stroke="#1e1e1e" stroke-width="2" fill="none"></path></g><g transform="translate(246.10550626248448 853.5131038282931) rotate(0 52.03125 9.199999999999989)"><text x="52.03125" y="14.720312499999999" font-family="Helvetica, Segoe UI Emoji" font-size="16px" fill="#1e1e1e" text-anchor="middle" style="white-space: pre;" direction="ltr" dominant-baseline="alphabetic">Start_acquired</text></g><g stroke-linecap="round" transform="translate(121.7432772593034 846.0421643337369) rotate(0 56.90689098957975 16.505512510385643)"><path d="M0 0 C32.98 0, 65.96 0, 113.81 0 M0 0 C31 0, 61.99 0, 113.81 0 M113.81 0 C113.81 12.63, 113.81 25.25, 113.81 33.01 M113.81 0 C113.81 8.24, 113.81 16.48, 113.81 33.01 M113.81 33.01 C89.83 33.01, 65.85 33.01, 0 33.01 M113.81 33.01 C80.19 33.01, 46.57 33.01, 0 33.01 M0 33.01 C0 20.16, 0 7.31, 0 0 M0 33.01 C0 22.93, 0 12.85, 0 0" stroke="#1e1e1e" stroke-width="2" fill="none"></path></g><g transform="translate(153.68833810972302 851.0723600816771) rotate(0 24.961830139160128 11.475316762445459)"><text x="24.961830139160156" y="18.36089660648757" font-family="Helvetica, Segoe UI Emoji" font-size="19.957072630339958px" fill="#1e1e1e" text-anchor="middle" style="white-space: pre;" direction="ltr" dominant-baseline="alphabetic">Id_no</text></g><g transform="translate(130.5312532124799 822.7524081045082) rotate(0 62.62621307373047 11.475316762445459)"><text x="0" y="18.36089660648757" font-family="Helvetica, Segoe UI Emoji" font-size="19.957072630339958px" fill="#1e1e1e" text-anchor="start" style="white-space: pre;" direction="ltr" dominant-baseline="alphabetic">PERMENANT</text></g><g stroke-linecap="round"><g transform="translate(135.73076849640785 875.2020979953724) rotate(0 37.62609806653742 -0.2221783476424548)"><path d="M0 0 C15.95 -0.09, 31.9 -0.19, 75.25 -0.44 M0 0 C15.47 -0.09, 30.94 -0.18, 75.25 -0.44" stroke="#1e1e1e" stroke-width="2" fill="none"></path></g></g><mask></mask><g stroke-linecap="round" transform="translate(360.7554914469762 846.7117349201579) rotate(0 46.216796875 16.5)"><path d="M0 0 C36.64 0, 73.28 0, 92.43 0 M0 0 C20.16 0, 40.32 0, 92.43 0 M92.43 0 C92.43 11.63, 92.43 23.26, 92.43 33 M92.43 0 C92.43 10.41, 92.43 20.81, 92.43 33 M92.43 33 C58.91 33, 25.39 33, 0 33 M92.43 33 C59.5 33, 26.56 33, 0 33 M0 33 C0 23.08, 0 13.16, 0 0 M0 33 C0 21.97, 0 10.94, 0 0" stroke="#1e1e1e" stroke-width="2" fill="none"></path></g><g transform="translate(384.2926008219762 854.0117349201579) rotate(0 22.6796875 9.199999999999989)"><text x="22.6796875" y="14.720312499999999" font-family="Helvetica, Segoe UI Emoji" font-size="16px" fill="#1e1e1e" text-anchor="middle" style="white-space: pre;" direction="ltr" dominant-baseline="alphabetic">Status</text></g><g stroke-linecap="round" transform="translate(453.4802419217755 846.4040022777189) rotate(0 46.216796875 16.5)"><path d="M0 0 C30.89 0, 61.78 0, 92.43 0 M0 0 C31.26 0, 62.53 0, 92.43 0 M92.43 0 C92.43 10.93, 92.43 21.86, 92.43 33 M92.43 0 C92.43 8.99, 92.43 17.98, 92.43 33 M92.43 33 C60.98 33, 29.52 33, 0 33 M92.43 33 C67.06 33, 41.7 33, 0 33 M0 33 C0 19.95, 0 6.91, 0 0 M0 33 C0 21.73, 0 10.47, 0 0" stroke="#1e1e1e" stroke-width="2" fill="none"></path></g><g transform="translate(483.2478200467755 853.7040022777188) rotate(0 16.44921875 9.199999999999989)"><text x="16.44921875" y="14.720312499999999" font-family="Helvetica, Segoe UI Emoji" font-size="16px" fill="#1e1e1e" text-anchor="middle" style="white-space: pre;" direction="ltr" dominant-baseline="alphabetic">Cost</text></g><g stroke-linecap="round" transform="translate(804.9806142811351 682.8829496162085) rotate(0 46.11759859880215 16.46458492003046)"><path d="M0 0 C21.77 0, 43.54 0, 92.24 0 M0 0 C33.02 0, 66.05 0, 92.24 0 M92.24 0 C92.24 8.66, 92.24 17.31, 92.24 32.93 M92.24 0 C92.24 11.59, 92.24 23.18, 92.24 32.93 M92.24 32.93 C66.02 32.93, 39.8 32.93, 0 32.93 M92.24 32.93 C72.82 32.93, 53.41 32.93, 0 32.93 M0 32.93 C0 21.95, 0 10.97, 0 0 M0 32.93 C0 23.36, 0 13.79, 0 0" stroke="#1e1e1e" stroke-width="2" fill="none"></path></g><g transform="translate(833.7505566299374 690.1475345362389) rotate(0 17.34765625 9.199999999999989)"><text x="17.34765625" y="14.720312499999999" font-family="Helvetica, Segoe UI Emoji" font-size="16px" fill="#1e1e1e" text-anchor="middle" style="white-space: pre;" direction="ltr" dominant-baseline="alphabetic">Type</text></g><g stroke-linecap="round" transform="translate(689.2822142127632 683.8418245902445) rotate(0 56.90689098957978 16.505512510385643)"><path d="M0 0 C36.86 0, 73.73 0, 113.81 0 M0 0 C25.02 0, 50.04 0, 113.81 0 M113.81 0 C113.81 7.65, 113.81 15.3, 113.81 33.01 M113.81 0 C113.81 7.16, 113.81 14.32, 113.81 33.01 M113.81 33.01 C89.19 33.01, 64.56 33.01, 0 33.01 M113.81 33.01 C89.05 33.01, 64.28 33.01, 0 33.01 M0 33.01 C0 20.87, 0 8.73, 0 0 M0 33.01 C0 21.92, 0 10.82, 0 0" stroke="#1e1e1e" stroke-width="2" fill="none"></path></g><g transform="translate(702.3975173727531 688.8720203381847) rotate(0 43.791587829589844 11.475316762445459)"><text x="43.791587829589844" y="18.36089660648757" font-family="Helvetica, Segoe UI Emoji" font-size="19.957072630339958px" fill="#1e1e1e" text-anchor="middle" style="white-space: pre;" direction="ltr" dominant-baseline="alphabetic">CollName</text></g><g transform="translate(697.9571297714912 660.5520683610158) rotate(0 121.95014953613287 11.475316762445459)"><text x="0" y="18.36089660648757" font-family="Helvetica, Segoe UI Emoji" font-size="19.957072630339958px" fill="#1e1e1e" text-anchor="start" style="white-space: pre;" direction="ltr" dominant-baseline="alphabetic">EXTERNAL_COLLECTION</text></g><g stroke-linecap="round"><g transform="translate(703.2697054498676 713.00175825188) rotate(0 37.62609806653745 -0.2221783476424548)"><path d="M0 0 C22.6 -0.13, 45.2 -0.27, 75.25 -0.44 M0 0 C22.66 -0.13, 45.32 -0.27, 75.25 -0.44" stroke="#1e1e1e" stroke-width="2" fill="none"></path></g></g><mask></mask><g stroke-linecap="round" transform="translate(897.6936817422998 683.8118339860158) rotate(0 46.216796875 16.5)"><path d="M0 0 C35.92 0, 71.84 0, 92.43 0 M0 0 C25.3 0, 50.6 0, 92.43 0 M92.43 0 C92.43 11.1, 92.43 22.2, 92.43 33 M92.43 0 C92.43 11.63, 92.43 23.26, 92.43 33 M92.43 33 C56.35 33, 20.27 33, 0 33 M92.43 33 C71.7 33, 50.98 33, 0 33 M0 33 C0 24.76, 0 16.53, 0 0 M0 33 C0 21.43, 0 9.86, 0 0" stroke="#1e1e1e" stroke-width="2" fill="none"></path></g><g transform="translate(925.6839161172998 691.1118339860158) rotate(0 18.2265625 9.199999999999989)"><text x="18.2265625" y="14.720312499999999" font-family="Helvetica, Segoe UI Emoji" font-size="16px" fill="#1e1e1e" text-anchor="middle" style="white-space: pre;" direction="ltr" dominant-baseline="alphabetic">Desc</text></g><g stroke-linecap="round" transform="translate(991.1780567422998 685.6946464860158) rotate(0 46.216796875 16.5)"><path d="M0 0 C31.64 0, 63.27 0, 92.43 0 M0 0 C21.62 0, 43.24 0, 92.43 0 M92.43 0 C92.43 11.28, 92.43 22.55, 92.43 33 M92.43 0 C92.43 8.51, 92.43 17.01, 92.43 33 M92.43 33 C72.62 33, 52.8 33, 0 33 M92.43 33 C60.44 33, 28.45 33, 0 33 M0 33 C0 26.17, 0 19.35, 0 0 M0 33 C0 20.56, 0 8.13, 0 0" stroke="#1e1e1e" stroke-width="2" fill="none"></path></g><g transform="translate(1008.0471973672998 692.9946464860158) rotate(0 29.34765625 9.199999999999989)"><text x="29.34765625" y="14.720312499999999" font-family="Helvetica, Segoe UI Emoji" font-size="16px" fill="#1e1e1e" text-anchor="middle" style="white-space: pre;" direction="ltr" dominant-baseline="alphabetic">Address</text></g><g stroke-linecap="round" transform="translate(514.4155301749336 481.03733434535525) rotate(0 46.216796875 16.5)"><path d="M0 0 C26.7 0, 53.4 0, 92.43 0 M0 0 C26.3 0, 52.59 0, 92.43 0 M92.43 0 C92.43 12.85, 92.43 25.7, 92.43 33 M92.43 0 C92.43 6.81, 92.43 13.62, 92.43 33 M92.43 33 C70.53 33, 48.64 33, 0 33 M92.43 33 C60.36 33, 28.29 33, 0 33 M0 33 C0 24.86, 0 16.72, 0 0 M0 33 C0 25.22, 0 17.44, 0 0" stroke="#1e1e1e" stroke-width="2" fill="none"></path></g><g transform="translate(542.8471707999336 488.3373343453552) rotate(0 17.78515625 9.199999999999989)"><text x="17.78515625" y="14.720312499999999" font-family="Helvetica, Segoe UI Emoji" font-size="16px" fill="#1e1e1e" text-anchor="middle" style="white-space: pre;" direction="ltr" dominant-baseline="alphabetic">Style</text></g><g stroke-linecap="round" transform="translate(357.39446710895754 757.9724937481194) rotate(0 61.983151763516275 16.961929377284605)"><path d="M0 0 C31.71 0, 63.42 0, 123.97 0 M0 0 C41.36 0, 82.71 0, 123.97 0 M123.97 0 C123.97 6.95, 123.97 13.9, 123.97 33.92 M123.97 0 C123.97 13.19, 123.97 26.38, 123.97 33.92 M123.97 33.92 C94.58 33.92, 65.19 33.92, 0 33.92 M123.97 33.92 C76.85 33.92, 29.73 33.92, 0 33.92 M0 33.92 C0 23.6, 0 13.28, 0 0 M0 33.92 C0 23.31, 0 12.7, 0 0" stroke="#1e1e1e" stroke-width="2" fill="none"></path></g><g transform="translate(368.2330876224738 765.734423125404) rotate(0 51.14453125 9.199999999999989)"><text x="51.14453125" y="14.720312499999999" font-family="Helvetica, Segoe UI Emoji" font-size="16px" fill="#1e1e1e" text-anchor="middle" style="white-space: pre;" direction="ltr" dominant-baseline="alphabetic">Date_returned</text></g><g stroke-linecap="round" transform="translate(481.05061826304757 758.5954188538632) rotate(0 61.983151763516275 16.961929377284605)"><path d="M0 0 C33.74 0, 67.49 0, 123.97 0 M0 0 C37.73 0, 75.47 0, 123.97 0 M123.97 0 C123.97 8.7, 123.97 17.39, 123.97 33.92 M123.97 0 C123.97 10.23, 123.97 20.46, 123.97 33.92 M123.97 33.92 C90.56 33.92, 57.16 33.92, 0 33.92 M123.97 33.92 C87.12 33.92, 50.28 33.92, 0 33.92 M0 33.92 C0 20.38, 0 6.84, 0 0 M0 33.92 C0 26.49, 0 19.06, 0 0" stroke="#1e1e1e" stroke-width="2" fill="none"></path></g><g transform="translate(507.91267627656384 766.3573482311477) rotate(0 35.12109375 9.199999999999989)"><text x="35.12109375" y="14.720312499999999" font-family="Helvetica, Segoe UI Emoji" font-size="16px" fill="#1e1e1e" text-anchor="middle" style="white-space: pre;" direction="ltr" dominant-baseline="alphabetic">CollName</text></g><g stroke-linecap="round"><g transform="translate(508.1599859373813 786.6994832553663) rotate(0 37.626098066537395 -0.2221783476424548)"><path d="M0 0 C17.63 -0.1, 35.26 -0.21, 75.25 -0.44 M0 0 C22.55 -0.13, 45.09 -0.27, 75.25 -0.44" stroke="#1e1e1e" stroke-width="2" fill="none"></path></g></g><mask></mask><g stroke-linecap="round"><g transform="translate(83.1064348951802 327.44870644478397) rotate(0 16.350827489255664 0.07589438493499756)"><path d="M0 0 C11.72 0.05, 23.44 0.11, 32.7 0.15 M0 0 C11.53 0.05, 23.07 0.11, 32.7 0.15" stroke="#2f9e44" stroke-width="4" fill="none"></path></g></g><mask></mask><g stroke-linecap="round"><g transform="translate(10.565301972242366 335.580151732566) rotate(0 -0.2826509861211832 0)"><path d="M0 0 C-0.17 0, -0.35 0, -0.57 0 M0 0 C-0.12 0, -0.25 0, -0.57 0" stroke="#1e1e1e" stroke-width="2" fill="none"></path></g><g transform="translate(10.565301972242366 335.580151732566) rotate(0 -0.2826509861211832 0)"><path d="M0 0 L-0.26 0.12 L-0.26 -0.12 L0 0" stroke="none" stroke-width="0" fill="#1e1e1e" fill-rule="evenodd"></path><path d="M0 0 C-0.08 0.04, -0.16 0.07, -0.26 0.12 M0 0 C-0.06 0.03, -0.11 0.05, -0.26 0.12 M-0.26 0.12 C-0.26 0.05, -0.26 -0.01, -0.26 -0.12 M-0.26 0.12 C-0.26 0.06, -0.26 0, -0.26 -0.12 M-0.26 -0.12 C-0.18 -0.08, -0.1 -0.05, 0 0 M-0.26 -0.12 C-0.2 -0.09, -0.14 -0.07, 0 0 M0 0 C0 0, 0 0, 0 0 M0 0 C0 0, 0 0, 0 0" stroke="#1e1e1e" stroke-width="2" fill="none"></path></g><g transform="translate(10.565301972242366 335.580151732566) rotate(0 -0.2826509861211832 0)"><path d="M-0.3 -0.1 C-0.38 -0.07, -0.46 -0.04, -0.57 0 M-0.3 -0.1 C-0.36 -0.08, -0.42 -0.05, -0.57 0" stroke="#1e1e1e" stroke-width="2" fill="none"></path></g><g transform="translate(10.565301972242366 335.580151732566) rotate(0 -0.2826509861211832 0)"><path d="M-0.3 0.1 C-0.38 0.07, -0.46 0.04, -0.57 0 M-0.3 0.1 C-0.36 0.08, -0.42 0.05, -0.57 0" stroke="#1e1e1e" stroke-width="2" fill="none"></path></g></g><mask></mask><g stroke-linecap="round"><g transform="translate(83.60425846054386 328.0380220205303) rotate(0 0.4239764791817606 -139.19147811537152)"><path d="M0 0 C0.27 -87.9, 0.54 -175.8, 0.85 -278.38 M0 0 C0.24 -80.41, 0.49 -160.82, 0.85 -278.38" stroke="#2f9e44" stroke-width="4" fill="none"></path></g></g><mask></mask><g stroke-linecap="round"><g transform="translate(118.28161757648525 51.299925764079944) rotate(0 -15.821314135557913 0.04756274292810758)"><path d="M0 0 C-11.9 0.04, -23.8 0.07, -31.64 0.1 M0 0 C-10.65 0.03, -21.29 0.06, -31.64 0.1" stroke="#2f9e44" stroke-width="4" fill="none"></path></g><g transform="translate(118.28161757648525 51.299925764079944) rotate(0 -15.821314135557913 0.04756274292810758)"><path d="M0 0 L-13.58 6.38 L-13.61 -6.3 L0 0" stroke="none" stroke-width="0" fill="#2f9e44" fill-rule="evenodd"></path><path d="M0 0 C-5.11 2.4, -10.21 4.8, -13.58 6.38 M0 0 C-4.57 2.15, -9.13 4.29, -13.58 6.38 M-13.58 6.38 C-13.59 2.73, -13.6 -0.91, -13.61 -6.3 M-13.58 6.38 C-13.58 3.65, -13.59 0.91, -13.61 -6.3 M-13.61 -6.3 C-9.87 -4.56, -6.12 -2.83, 0 0 M-13.61 -6.3 C-9.4 -4.35, -5.18 -2.4, 0 0 M0 0 C0 0, 0 0, 0 0 M0 0 C0 0, 0 0, 0 0" stroke="#2f9e44" stroke-width="4" fill="none"></path></g></g><mask></mask><g stroke-linecap="round"><g transform="translate(121.29023363516188 498.08143749363956) rotate(0 -19.06657558253636 -0.06182990321400439)"><path d="M0 0 C-9.33 -0.03, -18.66 -0.06, -38.13 -0.12 M0 0 C-8.82 -0.03, -17.64 -0.06, -38.13 -0.12" stroke="#2f9e44" stroke-width="4" fill="none"></path></g></g><mask></mask><g stroke-linecap="round"><g transform="translate(82.82983449026591 497.9353297448696) rotate(0 0.46460755843668267 -83.80248424760111)"><path d="M0 0 C0.26 -46.81, 0.52 -93.62, 0.93 -167.6 M0 0 C0.32 -57.66, 0.64 -115.31, 0.93 -167.6" stroke="#2f9e44" stroke-width="4" fill="none"></path></g></g><mask></mask><g stroke-linecap="round"><g transform="translate(83.09591946264635 589.8993612167195) rotate(0 0.3550803013147288 -46.282332408678656)"><path d="M0 0 C0.21 -27.57, 0.42 -55.15, 0.71 -92.56 M0 0 C0.21 -26.89, 0.41 -53.78, 0.71 -92.56" stroke="#2f9e44" stroke-width="4" fill="none"></path></g></g><mask></mask><g stroke-linecap="round"><g transform="translate(82.67547612079119 681.578975133785) rotate(0 0.3550803013147288 -46.282332408678656)"><path d="M0 0 C0.27 -35.14, 0.54 -70.28, 0.71 -92.56 M0 0 C0.2 -26.21, 0.4 -52.41, 0.71 -92.56" stroke="#2f9e44" stroke-width="4" fill="none"></path></g></g><mask></mask><g stroke-linecap="round"><g transform="translate(82.14903865914039 772.8893762002299) rotate(0 0.3550803013147288 -46.282332408678656)"><path d="M0 0 C0.25 -32.8, 0.5 -65.59, 0.71 -92.56 M0 0 C0.21 -27.3, 0.42 -54.61, 0.71 -92.56" stroke="#2f9e44" stroke-width="4" fill="none"></path></g></g><mask></mask><g stroke-linecap="round"><g transform="translate(81.50954080304132 864.3623015836948) rotate(0 0.3550803013147288 -46.282332408678656)"><path d="M0 0 C0.22 -28.53, 0.44 -57.06, 0.71 -92.56 M0 0 C0.25 -31.94, 0.49 -63.88, 0.71 -92.56" stroke="#2f9e44" stroke-width="4" fill="none"></path></g></g><mask></mask><g stroke-linecap="round"><g transform="translate(117.95659643099884 583.6135145991663) rotate(0 -17.225811035422197 -0.06182990321400439)"><path d="M0 0 C-10.82 -0.04, -21.65 -0.08, -34.45 -0.12 M0 0 C-9.81 -0.04, -19.61 -0.07, -34.45 -0.12" stroke="#2f9e44" stroke-width="4" fill="none"></path></g></g><mask></mask><g stroke-linecap="round"><g transform="translate(120.84682490068428 677.492384365391) rotate(0 -19.06657558253636 -0.06182990321400439)"><path d="M0 0 C-11.2 -0.04, -22.4 -0.07, -38.13 -0.12 M0 0 C-8.28 -0.03, -16.55 -0.05, -38.13 -0.12" stroke="#2f9e44" stroke-width="4" fill="none"></path></g></g><mask></mask><g stroke-linecap="round"><g transform="translate(120.1125992325405 777.3163972703531) rotate(0 -19.06657558253636 -0.06182990321400439)"><path d="M0 0 C-8.62 -0.03, -17.24 -0.06, -38.13 -0.12 M0 0 C-11.07 -0.04, -22.14 -0.07, -38.13 -0.12" stroke="#2f9e44" stroke-width="4" fill="none"></path></g></g><mask></mask><g stroke-linecap="round"><g transform="translate(120.5083106131101 864.8039437495094) rotate(0 -19.06657558253636 -0.06182990321400439)"><path d="M0 0 C-11.88 -0.04, -23.77 -0.08, -38.13 -0.12 M0 0 C-11.47 -0.04, -22.94 -0.07, -38.13 -0.12" stroke="#2f9e44" stroke-width="4" fill="none"></path></g></g><mask></mask><g stroke-linecap="round"><g transform="translate(606.023658045339 773.4789779041894) rotate(0 20.165096283526225 -0.08159501898796861)"><path d="M0 0 C15.71 -0.06, 31.41 -0.13, 40.33 -0.16 M0 0 C8.47 -0.03, 16.93 -0.07, 40.33 -0.16" stroke="#1e1e1e" stroke-width="2" fill="none"></path></g></g><mask></mask><g stroke-linecap="round"><g transform="translate(645.712217053986 773.6273324841675) rotate(0 -0.2540572182124947 -37.309322432247995)"><path d="M0 0 C-0.19 -27.44, -0.37 -54.88, -0.51 -74.62 M0 0 C-0.2 -29.57, -0.4 -59.15, -0.51 -74.62" stroke="#1e1e1e" stroke-width="2" fill="none"></path></g></g><mask></mask><g stroke-linecap="round"><g transform="translate(684.4341351178081 700.1287646985063) rotate(0 -19.714469246842725 0.13166468973059864)"><path d="M0 0 C-8.61 0.06, -17.22 0.12, -39.43 0.26 M0 0 C-15.53 0.1, -31.06 0.21, -39.43 0.26" stroke="#1e1e1e" stroke-width="2" fill="none"></path></g><g transform="translate(684.4341351178081 700.1287646985063) rotate(0 -19.714469246842725 0.13166468973059864)"><path d="M0 0 L-13.55 6.43 L-13.64 -6.25 L0 0" stroke="none" stroke-width="0" fill="#1e1e1e" fill-rule="evenodd"></path><path d="M0 0 C-2.96 1.4, -5.92 2.81, -13.55 6.43 M0 0 C-5.34 2.53, -10.68 5.07, -13.55 6.43 M-13.55 6.43 C-13.57 3.28, -13.59 0.12, -13.64 -6.25 M-13.55 6.43 C-13.58 1.84, -13.61 -2.75, -13.64 -6.25 M-13.64 -6.25 C-10.69 -4.9, -7.74 -3.55, 0 0 M-13.64 -6.25 C-8.57 -3.93, -3.51 -1.61, 0 0 M0 0 C0 0, 0 0, 0 0 M0 0 C0 0, 0 0, 0 0" stroke="#1e1e1e" stroke-width="2" fill="none"></path></g></g><mask></mask><g stroke-linecap="round"><g transform="translate(99.19607848228492 146.41362765416272) rotate(0 247.516179061656 -27.338851213183872)"><path d="M0 0 C0.16 0.02, 0.33 0.05, 0.78 0.11 M0 0 C0.19 0.03, 0.37 0.05, 0.78 0.11 M0.78 0.11 C0.98 -14.81, 1.18 -29.72, 1.51 -54.79 M0.78 0.11 C1.07 -21.8, 1.36 -43.71, 1.51 -54.79 M1.51 -54.79 C192.06 -53, 382.61 -51.2, 495.03 -50.14 M1.51 -54.79 C101.5 -53.85, 201.5 -52.91, 495.03 -50.14" stroke="#1e1e1e" stroke-width="2" fill="none"></path></g></g><mask></mask><g stroke-linecap="round"><g transform="translate(568.081974215934 62.59721042952299) rotate(0 38.18461445411896 0.5248043266726086)"><path d="M0 0 C23.84 0.33, 47.67 0.66, 76.37 1.05 M0 0 C22.06 0.3, 44.13 0.61, 76.37 1.05" stroke="#1e1e1e" stroke-width="2" fill="none"></path></g></g><mask></mask><g stroke-linecap="round"><g transform="translate(328.37806161628305 321.4648258978476) rotate(0 -64.02612785405819 -27.26015407097995)"><path d="M0 0 C17.05 0.15, 34.1 0.29, 49.15 0.42 M0 0 C12.47 0.11, 24.94 0.21, 49.15 0.42 M49.15 0.42 C48.97 -17.25, 48.8 -34.91, 48.6 -54.94 M49.15 0.42 C48.98 -16.22, 48.82 -32.85, 48.6 -54.94 M48.6 -54.94 C-23.61 -54.66, -95.81 -54.37, -177.2 -54.06 M48.6 -54.94 C-5.91 -54.73, -60.42 -54.51, -177.2 -54.06" stroke="#1e1e1e" stroke-width="2" fill="none"></path></g></g><mask></mask><g stroke-linecap="round"><g transform="translate(151.1583648637037 239.05260374980395) rotate(0 -0.1392291663537435 14.005925023577475)"><path d="M0 0 C-0.1 9.92, -0.2 19.84, -0.28 28.01 M0 0 C-0.08 8.23, -0.16 16.46, -0.28 28.01" stroke="#1e1e1e" stroke-width="2" fill="none"></path></g><g transform="translate(151.1583648637037 239.05260374980395) rotate(0 -0.1392291663537435 14.005925023577475)"><path d="M0 0 L5.79 12.75 L-6.05 12.63 L0 0" stroke="none" stroke-width="0" fill="#1e1e1e" fill-rule="evenodd"></path><path d="M0 0 C2.05 4.52, 4.1 9.03, 5.79 12.75 M0 0 C1.7 3.75, 3.4 7.49, 5.79 12.75 M5.79 12.75 C1.35 12.71, -3.09 12.66, -6.05 12.63 M5.79 12.75 C2.79 12.72, -0.21 12.69, -6.05 12.63 M-6.05 12.63 C-4.54 9.5, -3.04 6.36, 0 0 M-6.05 12.63 C-4.16 8.68, -2.27 4.73, 0 0 M0 0 C0 0, 0 0, 0 0 M0 0 C0 0, 0 0, 0 0" stroke="#1e1e1e" stroke-width="2" fill="none"></path></g></g><mask></mask><g stroke-linecap="round" transform="translate(1084.7589142045829 684.557300223803) rotate(0 46.216796875 16.5)"><path d="M0 0 C26.77 0, 53.53 0, 92.43 0 M0 0 C32.65 0, 65.3 0, 92.43 0 M92.43 0 C92.43 8.64, 92.43 17.29, 92.43 33 M92.43 0 C92.43 6.77, 92.43 13.53, 92.43 33 M92.43 33 C69.99 33, 47.54 33, 0 33 M92.43 33 C71.51 33, 50.59 33, 0 33 M0 33 C0 25.15, 0 17.3, 0 0 M0 33 C0 25.77, 0 18.55, 0 0" stroke="#1e1e1e" stroke-width="2" fill="none"></path></g><g transform="translate(1101.6280548295829 691.857300223803) rotate(0 29.34765625 9.199999999999989)"><text x="29.34765625" y="14.720312499999999" font-family="Helvetica, Segoe UI Emoji" font-size="16px" fill="#1e1e1e" text-anchor="middle" style="white-space: pre;" direction="ltr" dominant-baseline="alphabetic">Address</text></g><g stroke-linecap="round" transform="translate(1177.3286860825474 684.4373689998264) rotate(0 46.216796875 16.5)"><path d="M0 0 C26.62 0, 53.24 0, 92.43 0 M0 0 C29.79 0, 59.57 0, 92.43 0 M92.43 0 C92.43 8.84, 92.43 17.69, 92.43 33 M92.43 0 C92.43 9.88, 92.43 19.76, 92.43 33 M92.43 33 C58.72 33, 25.01 33, 0 33 M92.43 33 C72.66 33, 52.89 33, 0 33 M0 33 C0 22.63, 0 12.26, 0 0 M0 33 C0 22.55, 0 12.11, 0 0" stroke="#1e1e1e" stroke-width="2" fill="none"></path></g><g transform="translate(1200.4126704575474 691.7373689998263) rotate(0 23.1328125 9.199999999999989)"><text x="23.1328125" y="14.720312499999999" font-family="Helvetica, Segoe UI Emoji" font-size="16px" fill="#1e1e1e" text-anchor="middle" style="white-space: pre;" direction="ltr" dominant-baseline="alphabetic">Phone</text></g><g stroke-linecap="round" transform="translate(1271.3186166942849 683.9843460223302) rotate(0 105.77537122684487 18.461302926730298)"><path d="M0 0 C65.96 0, 131.92 0, 211.55 0 M0 0 C59.67 0, 119.34 0, 211.55 0 M211.55 0 C211.55 12.16, 211.55 24.31, 211.55 36.92 M211.55 0 C211.55 11.96, 211.55 23.92, 211.55 36.92 M211.55 36.92 C164.12 36.92, 116.7 36.92, 0 36.92 M211.55 36.92 C153.04 36.92, 94.54 36.92, 0 36.92 M0 36.92 C0 29.38, 0 21.84, 0 0 M0 36.92 C0 29.46, 0 21.99, 0 0" stroke="#1e1e1e" stroke-width="2" fill="none"></path></g><g transform="translate(1283.5604109557978 692.1520739838534) rotate(0 93.53357696533203 10.293574965207199)"><text x="93.53357696533203" y="16.470069590220305" font-family="Helvetica, Segoe UI Emoji" font-size="17.9018695047082px" fill="#1e1e1e" text-anchor="middle" style="white-space: pre;" direction="ltr" dominant-baseline="alphabetic">Current_conact_person</text></g><g stroke-linecap="round"><g transform="translate(116.04533184417915 147.86067597501608) rotate(0 -7.950032980199069 -0.4119324019443127)"><path d="M0 0 C-3.44 -0.18, -6.88 -0.36, -15.9 -0.82 M0 0 C-5.87 -0.3, -11.74 -0.61, -15.9 -0.82" stroke="#1e1e1e" stroke-width="2" fill="none"></path></g><g transform="translate(116.04533184417915 147.86067597501608) rotate(0 -7.950032980199069 -0.4119324019443127)"><path d="M0 0 L-7.38 2.99 L-7.03 -3.73 L0 0" stroke="none" stroke-width="0" fill="#1e1e1e" fill-rule="evenodd"></path><path d="M0 0 C-1.6 0.65, -3.19 1.29, -7.38 2.99 M0 0 C-2.72 1.1, -5.45 2.21, -7.38 2.99 M-7.38 2.99 C-7.29 1.34, -7.21 -0.3, -7.03 -3.73 M-7.38 2.99 C-7.3 1.47, -7.22 -0.05, -7.03 -3.73 M-7.03 -3.73 C-5.55 -2.95, -4.06 -2.16, 0 0 M-7.03 -3.73 C-4.46 -2.37, -1.88 -1, 0 0 M0 0 C0 0, 0 0, 0 0 M0 0 C0 0, 0 0, 0 0" stroke="#1e1e1e" stroke-width="2" fill="none"></path></g></g><mask></mask><g stroke-linecap="round"><g transform="translate(592.5143458924434 96.04640162090021) rotate(0 0.16005016890829893 -14.582931783480689)"><path d="M0 0 C0.12 -11.13, 0.24 -22.26, 0.32 -29.17 M0 0 C0.13 -11.66, 0.26 -23.33, 0.32 -29.17" stroke="#1e1e1e" stroke-width="2" fill="none"></path></g></g><mask></mask><g stroke-linecap="round"><g transform="translate(84.09530605577874 392.51703745080556) rotate(0 17.0204171427562 0)"><path d="M0 0 C6.86 0, 13.73 0, 34.04 0 M0 0 C7.92 0, 15.84 0, 34.04 0" stroke="#2f9e44" stroke-width="4" fill="none"></path></g></g><mask></mask></svg>